<?xml version="1.0" encoding="utf-8"?>
<!-- Generator: Adobe Illustrator 24.1.2, SVG Export Plug-In . SVG Version: 6.00 Build 0)  -->
<svg version="1.1" id="Layer_1" xmlns="http://www.w3.org/2000/svg" xmlns:xlink="http://www.w3.org/1999/xlink" x="0px" y="0px"
	 viewBox="0 0 24 24" style="enable-background:new 0 0 24 24;" xml:space="preserve">
<style type="text/css">
	.st0{fill:#5464FF;}
</style>
<path class="st0" d="M18,11c0-1-0.7-1.8-1.6-2C16.8,8.4,17,7.8,17,7c0-2.2-1.8-4-4-4c-1.5,0-2.8,0.9-3.5,2.1C8.8,3.9,7.5,3,6,3
	C3.8,3,2,4.8,2,7c0,0.9,0.3,1.7,0.8,2.4C2.3,9.8,2,10.3,2,11v8c0,1.1,0.9,2,2,2h12c1.1,0,2-0.9,2-2v-2.6l4,2v-7l-4,2V11z M13,5
	c1.1,0,2,0.9,2,2s-0.9,2-2,2s-2-0.9-2-2S11.9,5,13,5z M6,5c1.1,0,2,0.9,2,2S7.1,9,6,9S4,8.1,4,7S4.9,5,6,5z"/>
</svg>
