<svg xmlns="http://www.w3.org/2000/svg" viewBox="0 0 961.99 735.82"><defs><style>.cls-1{isolation:isolate;}.cls-15,.cls-2{fill:#d67086;}.cls-2{opacity:0.14;}.cls-16,.cls-2,.cls-7{mix-blend-mode:multiply;}.cls-3{fill:#3b3387;}.cls-4{fill:#59595b;}.cls-5{fill:#fff;}.cls-6{fill:#e6e6e7;}.cls-7{fill:#272525;opacity:0.26;}.cls-8{fill:#eac5b0;}.cls-9{fill:#292949;}.cls-10{fill:#353a85;}.cls-11{fill:#dddae8;}.cls-12{fill:#474ebb;}.cls-13{fill:#8cabef;}.cls-14{fill:#b97262;}.cls-16{opacity:0.06;}.cls-17{fill:#3a332d;}.cls-18{fill:#babcbe;}.cls-19{fill:#3b455a;}.cls-20{fill:#eed5d5;}.cls-21{fill:#5d66d3;}</style></defs><g class="cls-1"><g id="object"><path class="cls-2" d="M91.36,734.47c8.73-2.15,18.74-1.85,28.3-1.53,114,3.81,236.14-2.34,350.34-3.94,108.66-1.52,209.35,1.63,318-.42,72-1.36,144.17-2.37,215.81,1.58,12.79.7,28.78,3.23,30.14,10.19,1.24,6.31-11,10.76-22,12.84-25.4,4.82-46,9.22-72.9,9.81-62,1.36-130,4.64-192,6-84.15,1.84-150,0-240,0-78.05,0-174-.87-256-4-41.09-1.57-84.52-.61-125-4.63C108.29,758.61,49.46,744.83,91.36,734.47Z" transform="translate(-76.6 -34)"/><rect class="cls-3" x="550.91" y="164.38" width="238.24" height="158.56" transform="translate(-113.56 117.55) rotate(-12.56)"/><rect class="cls-4" x="530.62" y="138.65" width="238.97" height="27.88" transform="matrix(0.98, -0.22, 0.22, 0.98, -94.23, 111.04)"/><polygon class="cls-5" points="665.51 112.37 693.16 106.21 687.1 79 686.66 79.1 665.51 112.37"/><polygon class="cls-6" points="453.85 130.97 458.98 154 476.88 125.84 453.85 130.97"/><polygon class="cls-5" points="518.22 116.63 497.07 149.9 539.95 140.35 561.1 107.07 518.22 116.63"/><polygon class="cls-5" points="602.44 97.86 581.29 131.13 624.17 121.58 645.32 88.31 602.44 97.86"/><polygon class="cls-3" points="476.88 125.84 458.98 154 459.91 158.18 497.07 149.9 518.22 116.63 476.88 125.84"/><polygon class="cls-3" points="561.1 107.07 539.95 140.35 581.29 131.13 602.44 97.86 561.1 107.07"/><polygon class="cls-3" points="645.32 88.31 624.17 121.58 665.51 112.37 686.66 79.1 645.32 88.31"/><polygon class="cls-6" points="479.38 118.34 453.99 130.9 441.63 105.91 442.04 105.71 479.38 118.34"/><polygon class="cls-5" points="655.85 0 666.31 21.15 634.7 10.46 655.85 0"/><polygon class="cls-5" points="596.73 29.23 634.08 41.86 594.7 61.33 557.36 48.7 596.73 29.23"/><polygon class="cls-5" points="519.39 67.47 556.73 80.1 517.35 99.57 480.01 86.94 519.39 67.47"/><polygon class="cls-3" points="634.7 10.46 666.31 21.15 668.21 24.99 634.08 41.86 596.73 29.23 634.7 10.46"/><polygon class="cls-3" points="557.36 48.7 594.7 61.33 556.73 80.1 519.39 67.47 557.36 48.7"/><polygon class="cls-3" points="480.01 86.94 517.35 99.57 479.38 118.34 442.04 105.71 480.01 86.94"/><polygon class="cls-3" points="459.91 158.18 441.65 105.95 467.04 93.38 516.12 145.66 459.91 158.18"/><polygon class="cls-7" points="467.04 93.38 495.27 110.49 486.74 114.36 467.04 93.38"/><polygon class="cls-7" points="493.94 122.04 524.28 143.84 516.12 145.66 493.94 122.04"/><path class="cls-5" d="M541.73,143.57a3.77,3.77,0,1,1-4.59-2.74A3.78,3.78,0,0,1,541.73,143.57Z" transform="translate(-76.6 -34)"/><path class="cls-5" d="M546.24,177a3.77,3.77,0,1,1-4.58-2.74A3.77,3.77,0,0,1,546.24,177Z" transform="translate(-76.6 -34)"/><path class="cls-5" d="M573.24,170.18a3.78,3.78,0,1,1-4.59-2.74A3.78,3.78,0,0,1,573.24,170.18Z" transform="translate(-76.6 -34)"/><rect class="cls-5" x="571.67" y="287.51" width="216.61" height="1.61" transform="translate(-123.03 120.78) rotate(-12.56)"/><rect class="cls-5" x="644.03" y="298.38" width="1.78" height="26.31" transform="translate(-128.92 113.72) rotate(-12.56)"/><rect class="cls-5" x="720.68" y="281.3" width="1.78" height="26.31" transform="translate(-123.37 129.98) rotate(-12.56)"/><rect class="cls-5" x="549.67" y="188.7" width="216.61" height="1.78" transform="translate(-102.09 113.64) rotate(-12.56)"/><path class="cls-8" d="M772.31,359.81a12.78,12.78,0,0,0-4.28-5c-6.7-5-15.79-6.34-23.95-4.45-3.21.74-6.55,2.14-8.15,5a14.26,14.26,0,0,0-1.37,5.41q-.93,8.06-1.87,16.13a11.93,11.93,0,0,0,0,3.91c.91,4.05,5.55,5.87,9.54,7-.11,1.28-.2,2.57-.24,3.86,0,.16,1.76,9.37,13.51,5.69a2.68,2.68,0,0,0,1.83-2.08c.36-2,.84-3.83,2.42-5s3.72-1,5.48-1.85c3.33-1.51,4.44-5.59,5.18-9.17.63-3.11,1.27-6.22,1.9-9.34C773,366.59,773.65,363,772.31,359.81Z" transform="translate(-76.6 -34)"/><path class="cls-9" d="M801.8,341.79a45.6,45.6,0,0,0-1.73-10.62c-1.57-5.66-8.46-7.86-14.33-7.95-12.67-.2-25.16-5.26-37.25-.18-6.91,2.91-16.34,4-22.53,7.93a18.91,18.91,0,0,0-6.09,6.72,28.43,28.43,0,0,0,1.58,30,39.81,39.81,0,0,0,4.73,5.32c3.52,3.43,7.75,7.66,12.4,8.74-.12-4.1-4.56-16.8-1.61-20.32,4.7-5.6,16.08-4.37,22.34-3.41,6.83,1.06,13.11,5.51,19.86,6.16,4.86.46,10.87-2.24,14.83-5C800.2,355,802,348.39,801.8,341.79Z" transform="translate(-76.6 -34)"/><polygon class="cls-10" points="738.58 540.97 719.24 708.17 704.31 708.17 687.13 556.44 661.23 553.63 712.65 517.09 737.39 516.92 738.58 540.97"/><polygon class="cls-9" points="704.28 707.86 704.39 708.08 710.5 720.9 719.95 721.77 725.67 717.32 718.76 707.86 704.28 707.86"/><path class="cls-10" d="M687.73,556.17c-4.48.73-6.06,3.45-7.08,9.49-1.34,8,17.08-3.63,21.73,3.38,5.91,8.9,4.8,27.54,7.59,41.39,1.74,8.66-1.76,20.23-2.37,29-1.33,19.27-5.77,80.81-7.11,100.08l16,2.36,44.44-149,6.66-28.33-19.41-10.7c-11.57,1.59-25.25,5.7-36.89,5.08-6.66-.36-13-2.75-19.72-2.92A20.3,20.3,0,0,0,687.73,556.17Z" transform="translate(-76.6 -34)"/><polygon class="cls-9" points="623.91 705.19 623.99 705.44 628.51 720.13 638.48 722.56 645.3 718.71 639.41 707.48 623.91 705.19"/><path class="cls-11" d="M831.06,568.75c-16.28-14-14.87-53.06-14.87-53.07L801,437.77a50,50,0,0,0-8.85-20.15l-10.61-14.41-48.2-9.88s-27.81-4.95-44.88,84c-3.72,19.41-9.72,42.57-10.75,66.65-1.84,11.21-5.43,21.94-7.61,33.06-.63,3.23-1.77,8.82,1.09,11.4,3.48,3.15,10.27,1.87,13.95.76,12.72-3.82,25.22-9.77,38.06-13.18,14.44-3.83,29.22-7.79,44.15-9.08,11.64-1,20.79,2.6,31.89,4.89,6.51,1.35,8.32,4.25,14.91,5.14C830.33,579.19,842.62,578.66,831.06,568.75Z" transform="translate(-76.6 -34)"/><polygon class="cls-12" points="651.37 343.52 636.14 374.09 713.59 396.44 716.72 369.21 651.37 343.52"/><polygon class="cls-12" points="691.46 348.76 673.5 354.66 645.42 376.77 642.2 504.33 693.45 497.01 681.5 388.73 708.58 372.33 715.9 363.69 691.46 348.76"/><polygon class="cls-8" points="585.89 285.53 578.55 272.14 572.69 275.03 579.21 288.83 572.29 285.39 579.97 296.08 586.46 293.9 585.89 285.53"/><path class="cls-11" d="M674.18,407.48l-21.43-80.15,13.11-3.66,46.88,84.42L695,449.27C695.07,449.21,674.13,407.54,674.18,407.48Z" transform="translate(-76.6 -34)"/><path class="cls-8" d="M811.45,412l5.75-14.17,6.37,2.39c.48.18.92,6.52.88,7.09-.09,1.19-4,15.18-5.53,14.81L812,420.5Z" transform="translate(-76.6 -34)"/><path class="cls-11" d="M814.05,487.61l8.4-68.6-13.9-2.53-28.24,78,33.91-6.68Z" transform="translate(-76.6 -34)"/><polygon class="cls-13" points="61.57 470 41.83 464.57 37.45 440.48 68.21 384.18 68.21 425.08 61.57 470"/><polygon class="cls-9" points="59.55 704.09 59.19 712.35 77.35 721.32 83.95 713.43 76.06 704.82 60.92 695.93 59.55 704.09"/><polygon class="cls-10" points="154.32 515.98 171.99 544.57 140.78 707.69 125.51 706.97 121.03 538.9 125.3 491.28 154.32 515.98"/><polygon class="cls-9" points="127.31 713.41 143.43 722.44 150.06 714.58 142.19 705.93 125.69 705.15 127.31 713.41"/><path class="cls-10" d="M210.9,532.74l-19,7.14-53.69-36.22,4.26,47.73L154.26,568c2.61,1.82-3.12,38.13-4.37,50.95L136.63,734.74l16.23,4,43.87-138.38Z" transform="translate(-76.6 -34)"/><path class="cls-13" d="M258.3,526.32c-6.14-20.77-.54-1.38-6.74-22.13-6.86-23-13.78-46.17-24.05-67.9A242.27,242.27,0,0,0,216,414.8c-2.66-4.39-8.26-17.16-13.2-19-4.08-1.53-13.1,1.23-17.58,1.58-7.5.57-15,1.42-22.21,3.88-1.17.4-2.32.85-3.45,1.34S143.76,410.05,142,433.8c-1.86,24.72,1.23,64.27-8.65,85.28s-18.39,42.86-13.52,66.23h0a71.49,71.49,0,0,1,40.69-12.63c13.88.07,107.07,20.91,116.23,5.9C278.72,575.32,260.17,532.65,258.3,526.32Z" transform="translate(-76.6 -34)"/><path class="cls-14" d="M155.28,357.67c7.73-20.57,38.44-26.63,44.55-2.12,1.84,7.37,2.81,15.14,1.07,22.53s-6.57,14.36-13.63,17.13l-.12.05c.19,1.94.39,3.88.58,5.83a1.79,1.79,0,0,1-.17,1.21,1.76,1.76,0,0,1-1.29.52l-7,.76a7.53,7.53,0,0,1-3.44-.15c-2.38-.86-3.27-3.79-3.27-6.32,0-.61,0-1.22.06-1.83C156.94,389.15,150.22,371.12,155.28,357.67Z" transform="translate(-76.6 -34)"/><path class="cls-9" d="M198.71,328.48c5.24,0,8.87,5.61,13.21,8.93,3.61,2.75,8,4,11.8,6.4s7.26,6.75,6.65,11.47c4.45-1.54,9.25-3.08,13.75-1.5s8,7.75,5.46,12c-2.26,3.84-7.73,4-10.1,7.76-3.74,5.94,2.37,16.93-3.43,20.38-1.39.83-3.12.82-4.5,1.68-1.7,1.07-2.52,3.23-3.49,5.1-4.39,8.52-14.3,13-23.05,10.51a24,24,0,0,1-9.87-15.91c-1.28-7.77,3.07-9.76,4.77-16.62a30.69,30.69,0,0,0-3.27-22.53c-2.55-4.31-6.51-8.29-11.16-9.44-1.89-.46-1.52,1.22-3.46-.58a9.69,9.69,0,0,1-1.82-4.56C186,338.22,191.82,328.48,198.71,328.48Z" transform="translate(-76.6 -34)"/><path class="cls-9" d="M141.81,330.1c-2.75.35-5.61-.19-8.29.54-4,1.1-4.39,5.06-6,8.31-1.75,3.6-4.23,8.42-7.16,11-2.11,1.85-4.8,2.68-7.23,4s-4.8,3.42-5.19,6.37,1.14,5.58,1,8.41c-.29,4.2-1.32,6.22-.67,10.66.34,2.29.73,4.72,2.15,6.45,1.88,2.3,5,2.72,7.75,2.67s5.69-.39,8.23.91c5.5,2.81,3.55,8.51,4.36,13.65,1.24,7.83,9.26,13.48,16.29,11.8,6-1.41,10.18-7.46,10.89-13.94.35-3.25-.49-6.45-.1-9.69s2.77-7.19.31-10.08a22.2,22.2,0,0,1-1.95-1.93,4.65,4.65,0,0,1-.64-2.18,9.05,9.05,0,0,1,2.57-7.14c1.3-1.25,3-2.05,3.94-3.66,1.06-1.85.79-4.23,1-6.41.46-5.28,4.08-10,8.74-11.36,3.07-.9,5.78-1.3,8.59-3,.43-.25,6.89-4.45,6.87-3.34a11.54,11.54,0,0,0-1.73-5.45A22.85,22.85,0,0,0,180,329.3c-7.68-6.09-9.77,5.12-16.29,2.63-1.58-.6-2.58-2.27-3.92-3.38-2.51-2.09-6-2-9-1.16S144.91,329.72,141.81,330.1Z" transform="translate(-76.6 -34)"/><path class="cls-15" d="M173.42,460.83l-6.1,2.23-15.51-42.31c-1.44-3.48-1.64-11.49,7.69-17.58l22.65-16,3.74,5.21-22.81,16.13c-7.32,4.75-5.28,9.75-5.26,9.8l.06.16Z" transform="translate(-76.6 -34)"/><polygon class="cls-16" points="75.38 387.26 75.83 388.46 81.82 385.94 81.37 384.73 75.38 387.26"/><path class="cls-16" d="M157.54,416.84l-6.46.35a12.65,12.65,0,0,0,.12,1.28l6.55-.36A5.31,5.31,0,0,1,157.54,416.84Z" transform="translate(-76.6 -34)"/><path class="cls-16" d="M157.77,414.81,151.6,413q-.18.65-.3,1.26l6.25,1.87A7.31,7.31,0,0,1,157.77,414.81Z" transform="translate(-76.6 -34)"/><path class="cls-16" d="M158.62,412.83,153.46,409c-.24.37-.46.74-.67,1.11L158,414A8,8,0,0,1,158.62,412.83Z" transform="translate(-76.6 -34)"/><path class="cls-16" d="M155.55,406.39,159.2,412a11.08,11.08,0,0,1,.87-1l-3.57-5.47C156.17,405.77,155.85,406.08,155.55,406.39Z" transform="translate(-76.6 -34)"/><path class="cls-15" d="M246.44,571.35l-36.25-121-75.28,27.6L186.05,593.5S216.67,591.94,246.44,571.35Z" transform="translate(-76.6 -34)"/><polygon class="cls-5" points="135.73 406.38 132.64 407.52 130.74 402.35 51.45 431.43 53.34 436.6 115.07 413.96 50.25 437.73 53.21 445.8 138.69 414.46 135.73 406.38"/><path class="cls-16" d="M134.91,477.93s59.13-19,78.34-17.39l-3.06-10.21Z" transform="translate(-76.6 -34)"/><path class="cls-16" d="M186.05,593.5s30.62-1.56,60.39-22.15l-27.52-91.89C224.59,569.35,186.05,593.5,186.05,593.5Z" transform="translate(-76.6 -34)"/><polygon class="cls-5" points="159.89 499.33 144.75 448.24 70.42 475.5 92.15 524.17 159.89 499.33"/><path class="cls-16" d="M221.36,482.24s4.52,33.88-10.16,60.37l25.29-9.28Z" transform="translate(-76.6 -34)"/><polygon class="cls-16" points="93.58 523.65 158.59 499.81 160.21 505.21 93.58 523.65"/><path class="cls-16" d="M207.34,436.35l1.9,5.17-37.42,13.72S203.3,443.58,207.34,436.35Z" transform="translate(-76.6 -34)"/><polygon class="cls-14" points="149.28 377.42 148.03 362.2 154.51 361.38 157.67 371.61 160.56 369.81 160.04 382.96 153.41 384.72 149.28 377.42"/><path class="cls-13" d="M260.91,477.28l-22.6-64.72-13,4.16,8.52,81.91,27.25-21.28Z" transform="translate(-76.6 -34)"/><polygon class="cls-14" points="94.05 475.35 108.83 479.19 110.74 472.95 101.2 468.08 103.48 465.55 90.43 463.8 87.57 470.02 94.05 475.35"/><polygon class="cls-13" points="95.05 462.91 59.13 445.8 61.49 470.13 88.73 474.97 95.05 462.91"/><polygon class="cls-17" points="892.35 480.12 899.77 447.69 879.65 386.8 852.66 369.84 882.22 469.69 892.35 480.12"/><polygon class="cls-8" points="790.41 367.45 793.36 352.52 787.41 350.87 783.26 360.6 780.78 358.44 779.73 371.54 785.69 374.14 790.41 367.45"/><path class="cls-10" d="M855.29,401,826.63,462.2h-.09l30.63,24.5,9.72-79.93Z" transform="translate(-76.6 -34)"/><polygon class="cls-9" points="791.8 711.28 781.44 726.55 789.49 730 804.44 719.07 805.59 707 791.8 711.28"/><polygon class="cls-9" points="863.35 707.98 856.01 724.91 864.56 726.8 877.22 713.29 876.1 701.21 863.35 707.98"/><path class="cls-18" d="M850.56,564.1l8.6,54,8.6,128.63h15.15l10.23-124.31,7.78-73S855.48,556,850.56,564.1Z" transform="translate(-76.6 -34)"/><path class="cls-18" d="M887.52,568.05l33.2,111.74,18,64.5,15.18-2.87L945.21,675V545.75S890.94,559.16,887.52,568.05Z" transform="translate(-76.6 -34)"/><path class="cls-8" d="M889.72,363.45a17,17,0,0,1,1.82-2.85,17.94,17.94,0,0,1,7.13-5.13,25.28,25.28,0,0,1,25.81,4.17c8.88,7.76,11.17,22.83,5,33a16.47,16.47,0,0,1-4.37,4.59,23.35,23.35,0,0,1-7.55,3.64,41,41,0,0,0,2.9,7l-15.68,1.78q-.51-4.5-1-9a22.55,22.55,0,0,1-4.08-1.74c-11-6.12-12.76-17.29-11.43-32A9.81,9.81,0,0,1,889.72,363.45Z" transform="translate(-76.6 -34)"/><path class="cls-9" d="M916.38,365c-6.8-1.17-13.5-.45-21.39,1.12a5.4,5.4,0,0,0-3,1.26,5.55,5.55,0,0,0-1.13,3.46c-.47,5.05,0,10.2-.43,15.25.08-.9-5.91-6.27-6.61-7.55-2-3.63-2.85-7.77-4.54-11.35-1.62-3.42-3.45-5.59-3.58-9.67s.86-7.83,1.93-11.62c.88-3.14,2-6.49,4.62-8.41s5.86-2,9-1.83A82,82,0,0,1,925.72,345c4,2.08,10.92,5.08,12.69,9.31,1.16,2.78,1.88,7.86,2.35,12.78l-.43,15.3L929.94,392l-3-23.55A41.64,41.64,0,0,0,916.38,365Z" transform="translate(-76.6 -34)"/><path class="cls-10" d="M889.62,407.09l39.64-3.25s12,19.16,25.39,78.86C967.9,541.79,966.15,604,966.15,604S912.78,583.7,836,592.37l22.38-145.44Z" transform="translate(-76.6 -34)"/><path class="cls-15" d="M1034.57,457.78a12.71,12.71,0,0,0-1.52-17.62,10.48,10.48,0,0,0,.49-1.87,9.58,9.58,0,0,0-8-11,9.45,9.45,0,0,0-1.49-.12,14.1,14.1,0,0,0-19.91-8.27,13.11,13.11,0,0,0,.42-1.8,12.69,12.69,0,0,0-22.94-9.25,14.82,14.82,0,0,0-17.95-4.78,12.7,12.7,0,0,0-21.76-1.37,9.31,9.31,0,0,0-2.75-.87,9.57,9.57,0,0,0-11,8,9.76,9.76,0,0,0-.09,2.22,12.57,12.57,0,0,0-6.71-3.29,12.7,12.7,0,0,0-14.52,10.57,12.83,12.83,0,0,0,.29,5.29,12.7,12.7,0,0,0-10.29,10.52,13.8,13.8,0,0,0-.16,1.91Z" transform="translate(-76.6 -34)"/><path class="cls-16" d="M1034.05,458.37a12.7,12.7,0,0,0,0-17.19c-36.88,8.41-114.33-3.43-114.33-3.43l-.7,2.5Z" transform="translate(-76.6 -34)"/><path class="cls-13" d="M920.61,443.07,908,570.71c3.24,1,6.8,2,10.62,3.07l15.74-128.55Z" transform="translate(-76.6 -34)"/><path class="cls-13" d="M971.48,451.09,951.05,580.74q5.55.87,11.32,1.52l24.85-128.69Z" transform="translate(-76.6 -34)"/><path class="cls-13" d="M897.36,439.41l-9.94,124.13s3.71,1.54,10.16,3.78l12.48-125.91Z" transform="translate(-76.6 -34)"/><path class="cls-13" d="M944.88,446.9,929,576.42c3.68.87,7.54,1.7,11.52,2.48l20.4-129.47Z" transform="translate(-76.6 -34)"/><path class="cls-13" d="M1035.07,461.11l-12.7-2-27,124.29c3.89-.2,7.78-.53,11.65-1Z" transform="translate(-76.6 -34)"/><path class="cls-13" d="M997.76,455.23l-24.71,128c3.76.25,7.56.39,11.37.43l27.39-126.18Z" transform="translate(-76.6 -34)"/><path class="cls-5" d="M960.94,449.43,940.54,578.9q5.12,1,10.51,1.84l20.43-129.65Z" transform="translate(-76.6 -34)"/><path class="cls-5" d="M910.06,441.41,897.58,567.32c2.93,1,6.42,2.17,10.39,3.39l12.64-127.64Z" transform="translate(-76.6 -34)"/><path class="cls-5" d="M934.33,445.23,918.59,573.78c3.29.89,6.78,1.78,10.43,2.64L944.88,446.9Z" transform="translate(-76.6 -34)"/><path class="cls-5" d="M1011.81,457.44,984.42,583.62c3.64,0,7.3,0,11-.22l27-124.29Z" transform="translate(-76.6 -34)"/><path class="cls-5" d="M987.22,453.57,962.37,582.26q5.28.59,10.68.93l24.71-128Z" transform="translate(-76.6 -34)"/><rect class="cls-5" x="894.09" y="445.41" width="145" height="4.88" transform="matrix(0.99, 0.16, -0.16, 0.99, 4.89, -178.99)"/><polygon class="cls-16" points="958.47 427.11 957.15 432.79 868.28 412.9 958.47 427.11"/><path class="cls-16" d="M1003,548.36a80.74,80.74,0,0,1-12.41,6.87,106.3,106.3,0,0,1-13.05,4.8c-3.75,1.12-7.57,2.06-11.42,2.84-4.17.86-8.38,1.53-12.57,2.06-3.68.46-7.35.8-11,1.05-4.22.29-8.35.44-12.34.5-3.72,0-7.32,0-10.74-.08-3.94-.11-7.65-.3-11-.54-4-.27-7.61-.61-10.63-.94-6.51-.71-10.4-1.38-10.4-1.38s3.71,1.54,10.16,3.78c2.93,1,6.42,2.17,10.39,3.39,3.24,1,6.8,2,10.62,3.07,3.29.89,6.78,1.78,10.43,2.64s7.54,1.7,11.52,2.48q5.12,1,10.51,1.84,5.55.87,11.32,1.52,5.28.59,10.68.93c3.76.25,7.56.39,11.37.43,3.64,0,7.3,0,11-.23q5.83-.28,11.65-1l11.22-48.54A61.91,61.91,0,0,1,1003,548.36Z" transform="translate(-76.6 -34)"/><polygon class="cls-8" points="940.25 482.57 925.26 485.04 923.76 479.04 933.59 475.2 931.49 472.65 944.61 472.01 947.06 478.06 940.25 482.57"/><polygon class="cls-10" points="952.92 469.06 943.87 469.31 943.87 483.67 947.06 484.38 952.92 469.06"/><path class="cls-10" d="M571.23,449.27s31,34.6,38.23,37.9c5.35,2.45,33.47.67,33.47.67l5.71,12.64-37.83,13.64s-26-9.18-28-9-8.31.42-8.31.42Z" transform="translate(-76.6 -34)"/><polygon class="cls-8" points="569.92 459.45 573.58 456.07 573.85 448.63 575.33 447.96 576.25 449.95 578.1 443.93 582.17 441.34 588.09 444.26 591.37 450.65 588.33 456.61 581.86 460.63 574.24 468.36 569.92 459.45"/><path class="cls-9" d="M491.66,549s-11.64,37.59.69,39.92c7.06,1.34,4.83,18.21,4.83,18.21L503.72,688,490.05,742.8l15.94.8a185.6,185.6,0,0,0,23-56c8.59-37.94,12.15-80.06,12.44-81.17.54-2.06,12.53-54.3,12.53-54.3Z" transform="translate(-76.6 -34)"/><polygon class="cls-9" points="467.44 552.76 464.81 572.43 488.71 655.41 485.78 713.93 499.86 713.13 511.18 646.87 515.77 547.18 467.44 552.76"/><polygon class="cls-9" points="427.22 707.54 434.62 719.34 429.86 727.04 417.19 724.94 412.83 709.18 427.22 707.54"/><path class="cls-9" d="M579,744.72a14.31,14.31,0,0,0-6.62-1.56c-3.63-.19-7.3-.58-10.94-.58-1.81-.09,4.76,11.73,5.8,12.65,4.77,4.24,12,6,17.74,2.57a2.53,2.53,0,0,0,1.24-1.24,2.83,2.83,0,0,0-.5-2.24C583,749.39,581.8,746.37,579,744.72Z" transform="translate(-76.6 -34)"/><path class="cls-10" d="M616,631.48c-4.3-10.31-20.52-73.83-20.52-73.83-5.19-14.13-2.94-28.27-6.38-49.31-2.9-17.8-8.14-64.59-29.14-68.4-16.71-3-35,8.59-48.85,22.42h0l0,0s-23.25,23-25.2,75.72a165.72,165.72,0,0,1-7.31,42.58c-7.61,25-17.14,38.88-8,43.57a31.7,31.7,0,0,0,9.21,2.81c15.07,2.53,37.39-.88,52.08-5.17,18.14-5.3,55.39,5.87,55.39,5.87s6.14,2.62,12.78,4.77C608.82,635.32,618.42,637.34,616,631.48Z" transform="translate(-76.6 -34)"/><path class="cls-19" d="M550.91,397.78c6.06,1.56,13.3,7.84,14.41,15.2.53,3.54-.64,6.72.07,10.49,1.36,7.43-7,17.85.49,23.34,3.87,2.83,8.91,2.23,13.52,1.52a3.13,3.13,0,0,0,1.59-.55,3,3,0,0,0,.72-2.85,11.75,11.75,0,0,0-1.24-2.78c-4.89-9.35-3-22.32-4.51-32.77s-6-21-14.81-25.66c-4.68,3.08-8.77,6.21-10.2,12.1Z" transform="translate(-76.6 -34)"/><path class="cls-8" d="M559.88,446.15c6-2.55,6.74-12.64,8.38-19.65s1-14.44-.4-21.48c-4.6-23.44-30.66-18.09-37.65,1.4C524.11,423.41,542.36,453.56,559.88,446.15Z" transform="translate(-76.6 -34)"/><path class="cls-9" d="M525.69,455.35c3-1.89,5.93-3.87,7.8-7.57,3-6,2.34-15.55,3-22.17.68-7,1.63-14.58,6.14-19.48,2.94-3.2,6.4-3.94,10.28-4.19,2.65-.17,2.78,1,5-.76,1.69-1.31,3.07-5.06,3.41-7.23a13.32,13.32,0,0,0-3-10.16c-3.39-4.2-7.32-6.18-12.26-6.08-17.32.37-30,12.55-34.41,31.85-2.12,9.28-.12,19.4-2.4,28.34-1.4,5.52-4.41,9.3-5.51,15.16-2.87,15.2-9.76,34.79-8.8,50.33a2.32,2.32,0,0,0,.5,1.58c.8.74,1.94-.26,2.6-1.18l11.5-16.14a30.36,30.36,0,0,0,4-6.75c2.33-6.2.84-14,4.59-19.28C520.11,458.75,522.92,457.09,525.69,455.35Z" transform="translate(-76.6 -34)"/><polygon class="cls-20" points="474.08 360.85 375.58 363.19 376.9 418.5 462.45 416.46 474.94 396.99 480.85 396.85 494.25 415.7 580.36 413.65 579.05 358.35 474.08 360.85"/><polygon class="cls-15" points="388.78 373.56 461.95 371.82 462.47 393.63 454.93 405.39 389.57 406.94 388.78 373.56"/><polygon class="cls-12" points="566.36 369.33 493.19 371.07 493.7 392.89 501.79 404.27 567.15 402.71 566.36 369.33"/><polygon class="cls-16" points="461.9 371.8 389.46 406.84 454.88 405.26 462.49 393.38 461.9 371.8"/><polygon class="cls-16" points="566.49 369.4 501.79 404.41 567.21 402.83 566.49 369.4"/><path class="cls-10" d="M501.29,462l10.38,4.84L494,531l-7.38,9.77S460.1,526.66,469.65,506,501.29,462,501.29,462Z" transform="translate(-76.6 -34)"/><polygon class="cls-8" points="423.48 430.71 427.86 423.72 426.66 416.35 427.92 415.25 429.16 416.93 429.72 410.47 433.03 406.72 439.15 407.81 443.47 413.09 441.79 419.85 440.04 429.24 430.88 435.57 423.48 430.71"/><path class="cls-12" d="M483.11,241.81C460.64,249,434,245.25,416.59,230.5c-5-4.27-9.24-9.26-13.82-13.92a152.85,152.85,0,0,0-27.2-22.47,67.93,67.93,0,0,0-26.39-20.59,68.7,68.7,0,0,0-90.42,34.64,67.92,67.92,0,0,0,34.76,89.89,68.7,68.7,0,0,0,90.42-34.64,67.68,67.68,0,0,0,5.9-27.94c8.13,8.18,16.12,16.23,27.36,21.6,20.52,9.81,45.67,17.79,67.83,10.58Z" transform="translate(-76.6 -34)"/><ellipse class="cls-9" cx="321.35" cy="235.79" rx="54.84" ry="54.53" transform="translate(-93.18 -9.56) rotate(-4.25)"/><path class="cls-15" d="M317,140c-53,3.94-92.83,49.12-89,100.92S277.9,331.54,330.9,327.6s92.83-49.12,89-100.92S370,136.07,317,140Zm41.87,16.79a63.83,63.83,0,0,1,36,30.42,4.16,4.16,0,0,1-2,5.79l-48.76,21a2.71,2.71,0,0,1-3.7-3.13l13-51.19A4.2,4.2,0,0,1,358.83,156.8Zm-26.28,85a3.8,3.8,0,0,1,5.35-.28,3.76,3.76,0,0,1,.27,5.32,3.8,3.8,0,0,1-5.35.28A3.76,3.76,0,0,1,332.55,241.79Zm-1.35-21.72a3.8,3.8,0,0,1,5.34-.37,3.75,3.75,0,0,1,.37,5.31,3.79,3.79,0,0,1-5.34.37A3.75,3.75,0,0,1,331.2,220.07Zm4.33,13.52a3.79,3.79,0,1,1,3.94,3.61A3.77,3.77,0,0,1,335.53,233.59Zm-12.43-11a3.77,3.77,0,1,1,3.49-4A3.78,3.78,0,0,1,323.1,222.58ZM328.86,249a3.79,3.79,0,1,1-4.06-3.48A3.77,3.77,0,0,1,328.86,249ZM311,243.13a3.8,3.8,0,0,1,5.34-.37,3.77,3.77,0,1,1-5.34.37Zm-2.25-4.66a3.76,3.76,0,1,1,3.63-3.92A3.78,3.78,0,0,1,308.74,238.47Zm6.61-12.11a3.81,3.81,0,0,1-5.35.27,3.76,3.76,0,0,1-.27-5.32,3.81,3.81,0,0,1,5.35-.27A3.76,3.76,0,0,1,315.35,226.36Zm-23.5-71.81a79.93,79.93,0,0,1,52.71-3.89,4,4,0,0,1,2.84,5.52l-23.17,49.24a3.2,3.2,0,0,1-5.41.4l-29.1-45.38C288.38,158.35,289.36,155.64,291.85,154.55Zm-46.48,40a66.57,66.57,0,0,1,34.41-33.73,4.16,4.16,0,0,1,5.66,2.46l16.49,50.37a2.8,2.8,0,0,1-3.54,3.47l-50.61-16.91A4.12,4.12,0,0,1,245.37,194.51ZM245,263.25a78.42,78.42,0,0,1-4.06-52.39,4.09,4.09,0,0,1,5.53-3l49.51,21.78a3.17,3.17,0,0,1,.41,5.38l-45.47,30.18A4,4,0,0,1,245,263.25Zm39.65,46.93A66.32,66.32,0,0,1,250,276.69a4.15,4.15,0,0,1,2.36-5.69l50.33-17.46a2.79,2.79,0,0,1,3.55,3.44l-16,50.68A4.17,4.17,0,0,1,284.6,310.18Zm71.31,3.26a79.85,79.85,0,0,1-52.68,4.21c-2.63-.7-4-3.22-3-5.49L322,262.86a3.21,3.21,0,0,1,5.41-.43l30.43,45.11A4,4,0,0,1,355.91,313.44Zm47.89-45.16a68.85,68.85,0,0,1-32.72,36.54,4.13,4.13,0,0,1-5.82-2.09L346,253a2.86,2.86,0,0,1,3.36-3.75l51.67,13.54A4.12,4.12,0,0,1,403.8,268.28Zm-1.06-14.34L353.3,230.81a3.18,3.18,0,0,1-.38-5.39l45.74-28.85a4.08,4.08,0,0,1,5.91,2.13,78.38,78.38,0,0,1,3.73,52.42A4,4,0,0,1,402.74,253.94Z" transform="translate(-76.6 -34)"/><polygon class="cls-8" points="345.77 706.54 333.24 673.75 350.26 670.63 358.75 704.07 345.77 706.54"/><polygon class="cls-8" points="251.78 704.71 249.37 676.88 267.29 676.88 263.58 703.45 251.78 704.71"/><polygon class="cls-18" points="244.43 527.95 242.87 549.69 245.99 687.38 271.62 687.38 285.81 585.57 295.44 554.36 293.89 515.6 244.43 527.95"/><path class="cls-18" d="M395.07,555.54l-24-2,0,37.67,37.08,130.3,25.55-4.53-9.59-109.24s6.78-38.08,1.88-43.14c10.69-1.89,17,3.74,5.88-23.42A148.71,148.71,0,0,0,395.07,555.54Z" transform="translate(-76.6 -34)"/><polygon class="cls-9" points="252.17 703.65 237.44 713.73 239.45 720.71 268.13 716.83 263.8 703.65 252.17 703.65"/><polygon class="cls-9" points="358.75 704.07 345.9 706.35 336.27 720.15 342.13 727.14 355.78 719.9 358.75 704.07"/><path class="cls-21" d="M310.94,571.31c10.86-2.33,44.12-23.46,53.49-23.26,34.88.78,34.1,26.36,72.09,33.33s61.85,9.32,57.28-.37h0c-15.46-32.52-30.16-65.24-43.63-98.95-6.86-17.19-13.48-34.69-23.47-50.37-7.06-11.08-19.32-29.91-32.44-33l-.82-.18c-13.79-3-31.46-1.63-43.92,5.08a43.22,43.22,0,0,0-6.55,4.65c-6.09,4.91-11.06,7.57-13.69,15.06-2.28,6.5-2.81,13.6-4.07,20.34-2.55,13.69-7.6,12.59-6.12,41.32,1.91,36.82-9.08,54.88-14.58,77.69l-.84,3.44C303.36,569.08,304.22,572.75,310.94,571.31Z" transform="translate(-76.6 -34)"/><path class="cls-5" d="M372.18,397.68s-28.68-3.88-34.88,41.08c-5.51,40-.78,68.21-3.88,75.19s-13.95,54.26-13.95,54.26l37.21-12.41s14.72-4.65,69.76,23.26c0,0-13.06-49.56-19.38-76.74C399.31,469,399.31,397.68,372.18,397.68Z" transform="translate(-76.6 -34)"/><path class="cls-9" d="M349.39,369.92c-2.4,7.21,1.07,14.89,4.12,21.45,2.7,5.82,3.64,9.65-3.22,11.22-3.87.89-10.73,2.54-14.12-.42-2.56-2.24-1.12-9.17.13-11.92.95-2.1,3.48-3.17,4.37-5.29a7.38,7.38,0,0,0,.44-2.8,38.59,38.59,0,0,0-1.59-11.5c-.75-2.53-1.76-5-2-7.64-.33-3.81,2.37-8.25,3.78-11.75,2.64-6.51,11.81-15.25,19.48-10.14a11.23,11.23,0,0,1,3.62,5.05,9.44,9.44,0,0,1,1,3.6c.05,5-4.51,5.85-7.66,8.23A25,25,0,0,0,349.39,369.92Z" transform="translate(-76.6 -34)"/><path class="cls-8" d="M366.51,401.55c-6.66-1.57-11.87-7.16-14.37-13.52s-2.63-13.43-1.94-20.24c2.3-22.65,30.47-21.19,40-3.83C398.53,379.08,385.87,406.11,366.51,401.55Z" transform="translate(-76.6 -34)"/><path class="cls-9" d="M384.69,371.1c.28,3.54-1.58,7.47.37,10.45.87,1.32,2.32,2.11,3.55,3.11A12.54,12.54,0,0,1,393,396.23l21.27-.82a6.45,6.45,0,0,0,3.11-.65c2-1.19,2.06-3.94,1.93-6.22-.25-4.5-.62-9.31-3.42-12.84-1.29-1.63-3-2.87-4.33-4.51-6.22-7.88-.14-21.73-7.71-28.33-3.37-2.94-8.27-3.16-12.41-4.87-7.22-3-12-10.47-19.36-13-14-4.74-27.51,12.29-19.23,24.74C359.6,359.89,383.53,356.84,384.69,371.1Z" transform="translate(-76.6 -34)"/><polygon class="cls-8" points="231.19 300.53 231.38 286.02 225.18 285.68 226.38 299.1 220 294.06 221.35 306.49 227.75 307.72 231.19 300.53"/><polygon class="cls-21" points="215.33 306.62 218.15 360.27 245.91 419.07 267.97 378.56 242.87 355.52 229.13 305.38 215.33 306.62"/><polygon class="cls-8" points="290.18 384.92 288.75 371.15 290.87 367.48 293.85 376.94 296.33 375.58 296.18 387.34 290.44 388.32 290.18 384.92"/><polygon class="cls-21" points="287.07 387.26 310.27 435.59 332.42 467.38 346.81 436.6 298.85 381.3 287.07 387.26"/></g></g></svg>